<svg width="120" height="120" viewBox="0 0 120 120" fill="none" xmlns="http://www.w3.org/2000/svg">
<path d="M77.9452 0C87.2032 0 92.8171 10.4785 87.4987 18.0902C87.0062 18.7822 86.5138 19.3752 85.9228 19.9683C82.9682 22.8351 79.718 25.5043 76.6649 28.2722C74.4981 30.2492 72.4298 32.1273 70.4601 34.1044C68.3918 35.9826 67.1115 38.5528 66.619 41.3207C66.0281 44.7806 67.4069 48.2405 70.2631 50.2175C73.2178 52.4912 76.5664 53.1832 80.112 51.5027C81.9833 50.613 83.6576 49.4268 85.1349 48.0428C89.173 44.0887 93.014 39.9369 97.1506 35.9828C99.0219 34.0057 101.189 32.325 103.454 30.8422C104.636 30.1502 106.113 29.656 107.492 29.4583C114.091 28.4698 120 33.7091 120 40.4312V106.861C120 114.67 112.022 120.206 104.931 117.141C104.734 117.042 104.537 116.944 104.439 116.944C101.681 115.56 99.2188 113.582 97.1506 111.21C93.408 107.058 89.6654 103.005 85.8243 98.9523C84.741 97.766 83.4606 96.7775 82.0818 95.9867C78.4377 93.7131 74.6951 93.9107 71.248 96.382C69.2782 97.8648 67.5054 99.5454 65.8311 101.424C62.7779 104.587 59.9218 107.948 57.0656 111.21C56.6716 111.704 56.1792 112.1 55.7852 112.594C53.0275 115.757 48.9895 117.438 44.7545 117.339H15.0108C10.9728 117.339 7.32869 116.548 4.37403 113.681C-1.73229 107.849 -0.64892 98.7545 6.63926 94.4049C9.59393 92.6256 12.8441 91.9336 16.1927 91.1427C25.1552 89.1657 34.0192 87.2875 42.9817 85.2115C45.6409 84.6184 48.2016 83.6299 50.6638 82.5425C55.2928 80.3678 57.1641 75.9195 55.8837 71.0757C54.6034 66.4296 49.9744 62.8709 45.3454 63.1674C42.1937 63.3651 39.2391 64.749 37.0723 67.0226C34.6101 69.5928 32.2464 72.3606 29.8826 75.1285C28.0114 77.2045 26.4355 79.4781 24.3673 81.3563C22.5945 83.0368 20.7232 84.4208 18.5564 85.5081C13.632 87.9795 7.82114 86.9909 3.88158 83.2345C0.0405142 79.2803 -0.944381 73.3491 1.32086 68.4065C2.50273 65.8363 4.27551 63.5627 6.44227 61.7833C10.4803 58.4223 14.5184 55.2591 18.5564 51.997C19.5413 51.2061 20.5262 50.3165 21.4126 49.328C25.4506 45.1761 25.4506 38.5528 21.4126 34.401C20.2307 33.2148 18.9504 32.0286 17.5715 31.0401C14.1244 28.4699 10.6773 25.9985 7.32869 23.3295C5.4574 21.9455 3.78309 20.2649 2.40425 18.4855C1.32087 17.0027 0.532947 15.4213 0.23748 13.7408C-1.23985 6.62332 4.37401 0.0989499 11.5637 0.0989499H77.9452V0Z" fill="#004DFF"/>
</svg>
