<svg width="117" height="120" viewBox="0 0 117 120" fill="none" xmlns="http://www.w3.org/2000/svg">
<path d="M93.4935 0.044746C97.3183 0.044746 101.042 -0.0564818 104.767 0.044746C109.296 0.145974 112.718 2.67662 114.933 6.82696C118.355 13.4068 116.543 97.3247 116.342 106.03C116.342 109.776 114.731 113.42 112.014 116.052C107.384 120.607 100.036 120.506 95.5066 115.849C94.7013 115.039 93.9968 114.027 93.3929 112.914C91.6818 109.573 90.5746 105.929 90.0714 102.285C88.6622 93.2756 86.7498 84.3675 84.5355 75.6619C84.0322 73.5361 83.2269 71.4102 82.2204 69.4869C79.5028 64.3243 72.0545 63.1097 67.9278 66.8551C66.418 68.3735 65.3108 70.2968 64.8075 72.3213C63.2977 77.5852 61.8885 82.8491 60.5801 88.113C58.869 94.9965 57.3592 101.981 55.6481 108.865C55.3462 110.181 54.8429 111.496 54.2389 112.711C52.0246 117.266 48.5018 120 43.3685 120C38.2352 120 34.3097 117.469 31.894 112.914C29.7803 108.865 30.183 104.714 32.2967 100.665C33.9071 97.6283 36.4234 95.4012 39.0404 93.2754C41.9593 90.9472 44.9789 88.5178 47.6965 85.9871C49.005 84.7724 50.2129 83.3551 51.1187 81.8367C54.8429 76.1679 52.9305 69.1833 46.8913 66.0453C44.1737 64.6281 41.0534 64.223 38.1345 63.6156C30.3842 62.1985 22.634 60.8825 14.8838 59.5665C11.9648 59.1616 9.24718 58.2506 6.63021 56.8334C3.20802 54.9101 0.993648 51.5696 0.389731 47.7229C0.289079 46.8119 0.188438 45.9009 0.0877853 44.9898C-0.214173 33.3486 0.289097 21.8086 1.19497 10.2686C1.69824 4.09371 5.52303 0.247202 11.6629 0.044746H93.4935Z" fill="#004DFF"/>
</svg>
